<?xml version="1.0" encoding="utf-8"?>
<!-- Generator: Adobe Illustrator 14.0.0, SVG Export Plug-In . SVG Version: 6.00 Build 43363)  -->
<!DOCTYPE svg PUBLIC "-//W3C//DTD SVG 1.0//EN" "http://www.w3.org/TR/2001/REC-SVG-20010904/DTD/svg10.dtd">
<svg version="1.0" xmlns="http://www.w3.org/2000/svg" xmlns:xlink="http://www.w3.org/1999/xlink" x="0px" y="0px"
	 width="289.015px" height="300.5px" viewBox="0 0 289.015 300.5" enable-background="new 0 0 289.015 300.5" xml:space="preserve">
<g id="vorlage" display="none">
</g>
<g id="Layer_2" display="none">
</g>
<g id="map_x5F_preview" display="none">
</g>
<g id="shadow" display="none">
	<path display="inline" opacity="0.75" d="M274.787,120.522c-6.534-7.53-21.754-8.81-32.543-10.057
		c-1.901-0.22-3.919-0.401-5.986-0.494c-10.336-0.385-20.995,0.543-30.782,2.995c-16.859,4.223-34.436,10.723-46.915,23.591
		c-10.756,11.091-20.92,23.224-30.749,35.474c-0.077-0.012-0.116-0.017-0.193-0.028c-13.453-1.517-26.923-2.809-40.338-3.479
		c-4.771-0.238-9.667-0.263-14.424-0.344c-9.841-0.168-20.375,0.284-29.417,4.158c-5.438,2.33-5.993,8.984-6.094,10.768l0.824,4.042
		c-0.549,0.403-1.028,0.919-1.388,1.55c-9.142,16.089-24.364,49.993-29.907,76.47c-0.566,2.703,0.777,4.994,3.48,5.56
		c0.346,0.072,0.689,0.107,1.029,0.107c2.316,0,3.396-1.619,3.889-3.977c4.918-23.487,19.206-52.949,28.156-69.518
		c1.933,1.487,3.999,2.872,6.167,3.754c9.148,3.721,26.101,6.378,28.963,6.799c0.07,0.01,0.148,0.021,0.221,0.031
		c-8.556,21.222-18.55,68.12-18.562,87.607c-0.002,2.762,2.469,4.563,4.594,4.594s4.748-1.802,4.75-4.563
		c0.012-19.137,11.402-68.442,19.581-86.491c5.028,0.484,15.228,0.741,15.634,1.34c0.036,0.054-0.188,0.569-0.278,0.849
		c-2.99,9.217-4.302,17.744-5.932,27.342c-0.239,1.4-0.248,0.652-0.547,2.399c-0.211,1.232,1.858,2.453,3.991,2.406
		c0.138-0.004,0.272-0.012,0.404-0.021c2.051-0.144,3.262-0.962,3.521-2.073c0.393-1.681,0.663-2.29,0.981-3.635
		c2.193-9.266,4.075-17.368,7.294-26.333c0.033-0.095,0.072-0.266,0.103-0.285c0.02-0.013,0.121,0.01,0.182,0.014
		c8.634,0.507,17.352,0.465,26.369,0.059c8.074-0.364,23.356-4.154,23.356-4.154c0.282,0.354-20.318,33.109-20.611,52.299
		c-0.003,0.162-0.005,0.251-0.002,0.406c0.015,0.82,0.838,3.457,2.609,3.691c0.605,0.081,0.995,0.286,1.594,0.313
		c0.92,0.041,1.299,0.129,2.125,0c2.67-0.418,2.459-0.726,2.811-1.88c0.047-0.153,0.225-2.22,0.252-2.37
		c3.875-21.625,18.817-51.444,41.611-70.03c12.434-10.139,25.975-20.029,40.628-27.33c8.785-4.377,16.378-9.066,23.077-13.967
		C265.482,142.868,282.219,129.085,274.787,120.522z M57.731,199.189c-3.157-0.933-10.205-3.256-12.138-5.817
		c0.37-1.039,1.627-3.726,2.109-3.729c3.614-0.025,11.444,3.313,16.919,4.504c6.826,1.484,18.35,3.133,18.35,3.133
		c0.049,0.129-1.27,4.231-1.979,5.65c-0.179,0.356-0.36,0.751-0.541,1.136C72.32,202.757,64.794,201.275,57.731,199.189z
		 M106.113,206.824c-5.091-0.435-9.884-0.894-14.426-1.361c-0.353-0.037-0.952-0.106-1.238-0.14
		c0.004-0.126-0.007-0.251-0.013-0.376c0.794-1.317,4.49-5.672,5.542-6.064c2.217-0.827,13.157,1.026,13.279,1.249
		C109.462,200.504,107.022,204.612,106.113,206.824z M160.755,204.441c-3.136,3.237-19.468,3.344-25.763,3.468
		c-5.898,0.116-11.742,0.01-17.51-0.249c-0.587-0.026-1.743-0.051-1.769-0.093c-0.226-0.373,2.197-6.163,3.156-6.708
		c0.784-0.446,3.983,0.226,5.994,0.315c11.212,0.544,25.502-2.257,33.453-0.529C160.127,201.039,161.854,203.308,160.755,204.441z
		 M168.024,202.697c-0.058-1.088-1.91-3.034-1.91-3.034c0.058-0.222,6.566-1.715,6.566-1.715
		C172.708,197.992,169.482,201.136,168.024,202.697z M201.406,174.918c0.094,0.496-10.881,7.652-17.146,12.748
		c-0.552,0.45-1.595,1.328-1.595,1.328c-0.279-0.124-4.306-5.632-9.898-7.387c-11.623-3.647-35.852-8.01-35.954-8.274
		c-0.327-0.843,9.324-13.966,11.778-14.608c0.11-0.028,0.556,0.16,0.913,0.2c0.132,0.015,0.266,0.025,0.4,0.031
		c1.342,0.061,2.772-0.302,3.325-0.87c17.689-18.186,42.319-31.609,68.206-30.49c1.448,0.063,2.949,0.223,4.381,0.336
		c7.459,0.588,26.185,7.859,14.828,18.156c-7.885,7.149-17.003,12.899-26.128,18.438c-5.31,3.223-10.565,6.251-13.984,8.919
		C199.802,174.015,201.406,174.918,201.406,174.918z M249.543,146.7c-5.733,4.422-17.435,10.935-17.435,10.935
		c-0.005-0.008,10.331-7.503,13.811-10.981c12.3-12.296-9.133-20.179-17.895-20.984c-1.681-0.154-3.417-0.32-5.117-0.394
		c-23.729-1.027-47.628,8.131-65.608,23.501c4.381-4.852,8.079-8.78,10.45-11.196c10.878-11.087,26.4-17.688,41.494-21.086
		c8.511-1.916,17.089-2.738,24.807-2.392c1.476,0.066,2.939,0.198,4.327,0.327c9.091,0.846,22.048,2.155,27.005,7.986
		C271.136,129.185,255.705,141.947,249.543,146.7z"/>
</g>
<g id="chair">
	<g>
		
			<image overflow="visible" opacity="0.75" width="165" height="314" xlink:href="36561A1.png"  transform="matrix(1 0 0 1 -3 -4.5)">
		</image>
		<g>
			<path fill="#42210B" d="M64.88,299.875c-2.78,0-4.375-1.23-4.375-3.375c0-4.323,0.296-24.481,0.639-47.822l0.167-11.395
				c0.245-16.755,0.493-33.811,0.674-47.199c-11.521-0.664-20.926-2.555-28.745-5.777c-5.588-2.303-9.442-4.795-11.734-7.595v47.038
				c0,12.402-4.354,36.971-7.482,45.574c-0.565,1.554-2.057,1.554-3.043,1.554l-0.6-0.002c-0.45,0-0.896-0.079-1.324-0.234
				c-1.051-0.382-1.757-0.857-2.158-1.452c-0.462-0.687-0.516-1.532-0.158-2.514c2.898-7.973,7.016-31.52,7.016-42.926l-1.95-65.155
				c-3.793-5.393-4.348-13.231-1.313-18.685c3.944-7.084,13.038-10.231,21.415-12.375c10.672-2.732,22.281-4.118,34.506-4.118
				c2.606,0,5.271,0.064,7.925,0.19c-2.274-27.641-2.564-52.264-2.583-61.6c-0.037-18.809,5.989-35.657,16.533-46.223
				c6.861-6.875,15.328-10.66,23.842-10.66c13.453,0,23.055,3.376,29.352,10.322c10.722,11.823,8.8,31.428,7.255,47.181
				c-1.1,11.223-3.606,18.283-6.51,26.457c-3.933,11.072-6.04,24.592-9.601,50.717c-6.002,44.051,7.59,84.286,16.584,110.91
				c0.915,2.708,1.78,5.271,2.572,7.68l0.26,0.622c0.931,2.24,0.636,3.94-0.877,5.055c-0.722,0.531-1.711,0.801-2.94,0.801
				c-0.13,0-0.261-0.003-0.393-0.009c-1.663-0.074-3.418-2.6-3.946-3.872l-0.27-0.648c-9.362-22.518-18.663-47.667-20.77-85.605
				c-2.053,3.874-6.36,7.09-12.833,9.576c-5.396,2.073-11.416,3.636-17.9,4.646l0.019,0.073c7.521,29.093,9.503,36.213,11.8,44.457
				l0.396,1.42c0.359,1.286,0.644,2.305,1.19,4.3c0.31,1.126,0.203,2.098-0.308,2.81c-0.474,0.663-1.271,1.046-2.308,1.108
				c-0.196,0.013-0.396,0.019-0.596,0.019c-2.416,0-3.987-0.88-4.426-2.478c-0.54-1.968-0.731-2.651-1.037-3.744l-0.379-1.355
				c-2.307-8.282-4.298-15.435-11.837-44.596l-0.274-1.083c-3.793,0.326-7.751,0.491-11.771,0.491l-0.953-0.003l-0.896-0.01
				c-0.182,13.378-0.429,30.358-0.673,47.047l-0.177,12.057c-0.337,22.969-0.628,42.806-0.628,47.031
				C69.255,298.645,67.66,299.875,64.88,299.875L64.88,299.875z M71.628,183.625c4.003-0.025,7.65-0.162,11.136-0.418
				c-0.75-3.354-1.474-6.897-2.153-10.546c-3.242,0.27-6.489,0.449-9.664,0.536c-0.031,2.896-0.074,6.418-0.125,10.422
				L71.628,183.625z M25.28,167.361c-0.513,0.779-0.751,1.575-0.709,2.368c0.291,5.479,11.055,8.608,15.106,9.786
				c6.875,1.999,14.407,3.282,22.396,3.815c0.051-3.886,0.092-7.306,0.122-10.132c-6.846-0.185-13.516-0.815-19.83-1.876
				C36.474,170.333,30.731,169.284,25.28,167.361L25.28,167.361z M88.34,171.854c0.684,3.633,1.416,7.168,2.179,10.52
				c4.809-0.682,9.083-1.616,13.057-2.856l0.739-0.228c4.576-1.407,14.098-4.333,14.375-9.56c-0.098-1.794-1.397-3.543-3.863-5.165
				C105.982,169.192,95.566,170.946,88.34,171.854L88.34,171.854z M120.109,161.192c0.961,0.923,1.759,1.902,2.386,2.927
				c-0.017-1.792-0.011-3.65,0.018-5.552C121.822,159.531,121.018,160.409,120.109,161.192L120.109,161.192z M43.984,158.81
				c7.16,1.103,14.679,1.66,22.378,1.66c0.885,0,1.771-0.007,2.654-0.021c3.359-0.055,6.465-0.173,9.479-0.361
				c-0.205-1.361-0.405-2.725-0.599-4.093c-2.003-0.081-3.83-0.121-5.575-0.121l-0.689,0.002
				C60.626,155.945,51.778,156.881,43.984,158.81L43.984,158.81z M85.804,156.57c0.138,0.949,0.278,1.896,0.424,2.842
				c3.178-0.363,6.245-0.834,9.146-1.401C92.27,157.398,89.061,156.915,85.804,156.57L85.804,156.57z M21.151,152.887
				c3.251,1.441,6.787,2.444,9.843,3.236c0.721-0.321,1.479-0.636,2.253-0.933c10.481-4.027,23.066-6.068,37.405-6.068l0.98,0.003
				c1.779,0.011,3.578,0.046,5.355,0.103c-0.523-4.12-1.018-8.436-1.471-12.843c-2.524-0.119-5.056-0.179-7.529-0.179l-0.856,0.002
				c-14.726,0.08-26.286,1.484-36.383,4.419c-4.058,1.18-8.711,2.647-12.587,5.149c-1.178,0.76-2.51,1.656-3.592,2.759
				c0.687,0.758,1.524,1.475,2.495,2.134c0.185-0.028,0.372-0.045,0.564-0.045C19.153,150.625,20.52,151.508,21.151,152.887
				L21.151,152.887z M84.854,149.669c9.103,0.755,16.776,2.344,23.442,4.855c2.323-0.811,5.688-2.111,8.599-4.147
				c0.827-0.579,1.765-1.253,2.583-2.04c-1.159-1.056-2.262-1.891-3.368-2.553c-3.556-2.126-7.675-3.812-12.592-5.154
				c-6.25-1.706-13.028-2.935-20.154-3.655C83.818,141.295,84.319,145.562,84.854,149.669L84.854,149.669z M82.151,124.125
				c12.108,1.054,21.659,3.201,30.034,6.75c5.564,2.358,9.285,5.304,11.327,8.977c0.029-0.352,0.06-0.704,0.095-1.06
				c0.825-8.508,1.868-16.062,3.188-23.079c-1.014-0.376-1.653-1.389-1.523-2.492c0.575-4.89,2.063-10.658,3.64-16.764
				c2.679-10.377,5.713-22.135,5.594-33.935c-0.011-1.058-0.506-25.899-21.958-25.899c-19.437,0-29.292,20.397-29.292,60.625
				c0,1.31-1.065,2.375-2.375,2.375c-0.121,0-0.241-0.009-0.359-0.027C80.941,107.995,81.489,116.242,82.151,124.125L82.151,124.125
				z M112.547,31.875c26.094,0,26.695,29.351,26.708,30.601c0.045,4.469-0.333,9.247-1.15,14.49
				c1.344-4.584,2.351-9.29,2.919-15.093c1.395-14.23,3.131-31.94-5.282-41.219c-4.746-5.234-12.469-7.778-23.611-7.778
				c-6.534,0-12.882,2.899-18.355,8.384c-9.102,9.12-14.303,23.966-14.27,40.733c0.007,3.167,0.042,7.796,0.161,13.519
				C83.095,46.546,94.141,31.875,112.547,31.875L112.547,31.875z"/>
			<path fill="#FFEDBD" d="M112.13,5.5c13.342,0,22.852,3.336,29.074,10.199c10.609,11.7,8.696,31.213,7.159,46.893
				c-1.096,11.178-3.596,18.217-6.49,26.368c-3.885,10.937-5.927,23.7-9.618,50.791c-6.628,48.641,10.625,92.75,19.171,118.758
				l0.27,0.648c0.742,1.785,0.803,3.464-0.753,4.609c-0.708,0.521-1.668,0.728-2.718,0.728c-0.124,0-0.25-0.003-0.376-0.009
				c-1.37-0.061-3.058-2.295-3.616-3.641l-0.271-0.649c-8.672-20.857-18.831-47.135-20.822-87.023
				c-2.031,5.434-7.952,8.75-13.261,10.789c-5.825,2.238-11.979,3.739-18.23,4.688c0.04,0.158,0.079,0.318,0.12,0.476
				c7.515,29.07,9.501,36.203,11.802,44.463c0.595,2.137,0.856,3.061,1.586,5.719c0.512,1.864-0.214,3.319-2.276,3.444
				c-0.189,0.012-0.381,0.018-0.573,0.018c-1.771,0-3.603-0.521-4.064-2.202c-0.728-2.649-0.822-2.972-1.416-5.101
				c-2.31-8.293-4.304-15.455-11.835-44.589c-0.119-0.461-0.235-0.927-0.353-1.391c-4.033,0.357-8.071,0.518-12.057,0.518
				c-0.317,0-0.635-0.001-0.951-0.003c-0.421-0.003-0.846-0.01-1.269-0.015c-0.182,13.435-0.432,30.577-0.678,47.421
				c-0.414,28.362-0.805,54.152-0.805,59.094c0,2.209-1.791,3-4,3s-4-0.791-4-3c0-5,0.391-30.818,0.806-59.211
				c0.247-16.906,0.498-34.117,0.679-47.56c-9.887-0.546-19.961-2.052-28.982-5.77c-4.017-1.655-9.493-4.334-12.252-8.372v48.162
				c0,12.52-4.378,36.972-7.46,45.446c-0.444,1.221-1.496,1.307-2.69,1.307c-0.196,0-0.397-0.002-0.6-0.002
				c-0.397,0-0.801-0.068-1.196-0.212c-1.816-0.66-2.753-1.669-2.092-3.485c2.842-7.818,7.038-31.366,7.038-43.054l-1.954-65.279
				c-3.653-5.118-4.396-12.916-1.355-18.378c4.018-7.218,13.699-10.28,21.18-12.194c11.18-2.862,22.836-4.106,34.413-4.106
				c2.735,0,5.468,0.07,8.187,0.204c0.049,0.002,0.099,0.005,0.147,0.008c-2.271-27.37-2.597-51.672-2.617-61.997
				c-0.037-18.71,5.949-35.461,16.424-45.957C95.344,9.247,103.717,5.5,112.13,5.5 M79.442,81.693
				c2.531-32.824,13.634-49.443,33.104-49.443c25.729,0,26.32,28.995,26.333,30.229c0.068,6.812-0.845,13.524-2.136,19.958
				c2.098-6.113,3.827-12.102,4.652-20.528c1.402-14.304,3.147-32.106-5.378-41.508c-4.82-5.316-12.635-7.901-23.889-7.901
				c-6.636,0-13.075,2.938-18.621,8.495c-9.172,9.19-14.412,24.133-14.379,40.999C79.139,66.337,79.202,73.182,79.442,81.693
				 M80.88,99.25c-0.27,0-0.525-0.055-0.76-0.151c0.391,7.9,0.934,16.484,1.685,25.374c10.33,0.879,20.696,2.707,30.234,6.749
				c5.243,2.222,9.656,5.258,11.735,10.003c0.069-0.799,0.128-1.589,0.206-2.396c0.896-9.246,2.015-16.89,3.246-23.38
				c-1.006-0.208-1.705-1.145-1.583-2.183c0.572-4.86,2.058-10.618,3.631-16.714c2.684-10.397,5.726-22.181,5.605-34.032
				c-0.011-1.072-0.52-26.27-22.333-26.27c-19.686,0-29.667,20.523-29.667,61C82.88,98.354,81.984,99.25,80.88,99.25 M16.98,151.065
				c0.211-0.04,0.427-0.065,0.649-0.065c1.462,0,2.711,0.897,3.235,2.17c3.5,1.568,7.352,2.623,10.162,3.35
				c0.789-0.355,1.579-0.682,2.354-0.979c11.718-4.502,24.76-6.043,37.271-6.043c0.326,0,0.653,0.001,0.979,0.003
				c1.908,0.012,3.841,0.051,5.785,0.117c-0.581-4.539-1.098-9.084-1.559-13.591c-2.625-0.129-5.249-0.195-7.869-0.195
				c-0.286,0-0.572,0.001-0.858,0.002c-12.199,0.066-24.717,1.013-36.485,4.435c-4.359,1.267-8.843,2.713-12.686,5.194
				c-1.377,0.889-2.777,1.848-3.896,3.064C14.858,149.461,15.846,150.309,16.98,151.065 M108.291,154.923
				c3.097-1.073,6.146-2.37,8.818-4.239c1.013-0.708,2.033-1.457,2.901-2.348c-0.057-0.064-0.113-0.125-0.171-0.177
				c-1.095-1.007-2.259-1.933-3.538-2.698c-3.939-2.355-8.265-3.987-12.686-5.194c-6.75-1.842-13.688-3.029-20.674-3.712
				c0.467,4.47,0.991,8.973,1.578,13.462C92.648,150.673,100.798,152.082,108.291,154.923 M66.362,160.845
				c0.887,0,1.774-0.007,2.66-0.021c3.284-0.054,6.595-0.174,9.906-0.388c-0.243-1.597-0.478-3.197-0.704-4.803
				c-1.969-0.084-3.938-0.135-5.902-0.135c-0.23,0-0.461,0.001-0.691,0.002c-9.842,0.063-19.922,0.8-29.472,3.396
				C50.148,160.236,58.276,160.845,66.362,160.845 M85.911,159.825c3.806-0.425,7.591-1.012,11.32-1.813
				c-3.912-0.847-7.878-1.46-11.868-1.865C85.541,157.376,85.723,158.603,85.911,159.825 M122.89,165.674
				c-0.046-2.75-0.036-5.554,0.021-8.401c-0.862,1.459-1.977,2.772-3.365,3.904C120.953,162.466,122.124,163.947,122.89,165.674
				 M90.229,182.793c4.563-0.632,9.077-1.551,13.457-2.917c4.242-1.322,15.069-4.326,15.377-10.126
				c-0.12-2.262-1.877-4.12-4.218-5.619c-8.199,4.341-17.861,6.278-26.948,7.4C88.614,175.364,89.391,179.129,90.229,182.793
				 M62.444,183.73c0.055-4.221,0.1-7.907,0.131-10.896c-6.764-0.166-13.51-0.766-20.146-1.881
				c-5.359-0.9-11.591-1.996-17.293-4.041c-0.637,0.872-0.993,1.817-0.938,2.838c0.305,5.74,11.134,8.893,15.376,10.126
				C47.002,182.036,54.707,183.239,62.444,183.73 M71.5,184c0.043,0,0.087,0,0.131,0c3.843-0.024,7.723-0.155,11.594-0.451
				c-0.829-3.68-1.597-7.453-2.308-11.29c-3.434,0.292-6.885,0.486-10.342,0.573c-0.032,3.052-0.078,6.829-0.134,11.158
				C70.793,183.991,71.146,184,71.5,184 M112.13,4.75c-8.614,0-17.176,3.825-24.107,10.77C77.408,26.156,71.343,43.101,71.38,62.008
				c0.019,9.293,0.306,33.723,2.55,61.205c-2.519-0.113-5.043-0.171-7.517-0.171c-12.255,0-23.896,1.389-34.599,4.129
				c-8.454,2.164-17.637,5.347-21.649,12.556c-3.085,5.542-2.544,13.488,1.268,18.99l1.947,65.055
				c0,11.353-4.104,34.828-6.993,42.775c-0.4,1.101-0.333,2.06,0.2,2.852c0.446,0.663,1.212,1.185,2.341,1.595
				c0.47,0.17,0.958,0.257,1.452,0.257l0.3,0.001l0.3,0.001c1.024,0,2.74,0,3.396-1.8c3.139-8.631,7.505-33.269,7.505-45.703
				v-46.042c2.382,2.542,6.077,4.827,11.216,6.945c7.777,3.205,17.109,5.099,28.509,5.783c-0.18,13.334-0.426,30.235-0.669,46.842
				l-0.167,11.394c-0.343,23.343-0.639,43.503-0.639,47.828c0,2.383,1.731,3.75,4.75,3.75s4.75-1.367,4.75-3.75
				c0-4.224,0.291-24.059,0.628-47.025l0.177-12.058c0.241-16.532,0.487-33.353,0.667-46.672c0.176,0.002,0.35,0.004,0.524,0.005
				c0.318,0.002,0.638,0.003,0.956,0.003c3.919,0,7.779-0.156,11.485-0.466c0.065,0.26,0.131,0.519,0.197,0.776
				c7.54,29.167,9.532,36.32,11.839,44.603l0.377,1.35c0.307,1.097,0.498,1.779,1.038,3.748c0.48,1.75,2.226,2.754,4.788,2.754
				c0.207,0,0.414-0.007,0.619-0.019c1.455-0.089,2.212-0.736,2.59-1.265c0.578-0.808,0.704-1.89,0.364-3.127
				c-0.549-1.999-0.833-3.018-1.193-4.308l-0.394-1.414c-2.287-8.212-4.264-15.306-11.714-44.123
				c6.355-1.017,12.262-2.563,17.569-4.603c5.957-2.288,10.111-5.2,12.395-8.679c2.24,37.312,11.453,62.198,20.727,84.501
				l0.271,0.649c0.577,1.39,2.423,4.02,4.275,4.102c0.138,0.006,0.274,0.01,0.409,0.01c1.312,0,2.375-0.294,3.162-0.874
				c1.671-1.229,2.008-3.08,1.001-5.501l-0.259-0.621c-0.789-2.403-1.651-4.955-2.563-7.656
				c-8.983-26.591-22.558-66.775-16.567-110.74c3.557-26.099,5.661-39.602,9.582-50.641c2.911-8.198,5.425-15.277,6.529-26.546
				c1.552-15.827,3.482-35.523-7.35-47.47C135.387,8.167,125.695,4.75,112.13,4.75L112.13,4.75z M79.955,70.647
				c-0.052-3.516-0.07-6.443-0.075-8.655c-0.033-16.668,5.128-31.418,14.16-40.467c5.401-5.413,11.657-8.274,18.09-8.274
				c11.03,0,18.663,2.504,23.333,7.655c8.303,9.156,6.575,26.774,5.188,40.931c-0.329,3.354-0.805,6.34-1.407,9.149
				c0.286-2.974,0.414-5.799,0.387-8.512c-0.013-1.265-0.623-30.972-27.083-30.972C94.974,31.5,84.037,44.656,79.955,70.647
				L79.955,70.647z M80.916,100c1.5-0.02,2.714-1.246,2.714-2.75c0-39.979,9.729-60.25,28.917-60.25
				c21.084,0,21.572,24.485,21.583,25.527c0.119,11.751-2.909,23.483-5.581,33.834c-1.58,6.122-3.071,11.901-3.65,16.817
				c-0.137,1.169,0.471,2.25,1.473,2.759c-1.291,6.926-2.316,14.375-3.13,22.746c-2.175-3.293-5.769-5.974-10.909-8.153
				c-8.34-3.535-17.833-5.684-29.833-6.751C81.86,116.128,81.328,108.137,80.916,100L80.916,100z M15.094,148.546
				c1.007-0.962,2.203-1.765,3.271-2.454c3.834-2.475,8.456-3.932,12.488-5.104c10.063-2.925,21.591-4.325,36.28-4.405l0.854-0.002
				c2.363,0,4.778,0.055,7.189,0.164c0.428,4.143,0.893,8.204,1.384,12.094c-1.638-0.049-3.291-0.079-4.926-0.089
				c-0.327-0.002-0.655-0.003-0.983-0.003c-14.385,0-27.016,2.05-37.539,6.093c-0.738,0.283-1.461,0.582-2.152,0.888
				c-2.971-0.772-6.385-1.747-9.531-3.128c-0.718-1.437-2.177-2.35-3.8-2.35c-0.153,0-0.31,0.01-0.472,0.029
				C16.374,149.736,15.682,149.156,15.094,148.546L15.094,148.546z M85.186,149.321c-0.5-3.866-0.971-7.871-1.4-11.926
				c6.937,0.724,13.538,1.933,19.634,3.597c4.884,1.333,8.972,3.005,12.498,5.114c0.988,0.591,1.976,1.326,3.005,2.236
				c-0.727,0.653-1.525,1.227-2.242,1.728c-2.176,1.522-4.843,2.813-8.379,4.056C101.705,151.657,94.135,150.083,85.186,149.321
				L85.186,149.321z M45.99,158.724c7.298-1.618,15.562-2.409,25.646-2.474l0.687-0.002c1.648,0,3.371,0.035,5.247,0.108
				c0.161,1.13,0.326,2.257,0.495,3.382c-2.881,0.173-5.853,0.283-9.055,0.335c-0.881,0.015-1.765,0.021-2.647,0.021
				C59.378,160.095,52.543,159.635,45.99,158.724L45.99,158.724z M86.543,158.998c-0.101-0.667-0.2-1.335-0.299-2.003
				c2.397,0.264,4.766,0.604,7.083,1.015C91.143,158.394,88.874,158.725,86.543,158.998L86.543,158.998z M120.659,161.207
				c0.524-0.477,1.014-0.986,1.465-1.525c-0.012,1.086-0.016,2.155-0.012,3.204C121.683,162.31,121.197,161.749,120.659,161.207
				L120.659,161.207z M88.782,172.176c7.183-0.919,17.327-2.681,26.021-7.176c2.225,1.505,3.404,3.102,3.51,4.75
				c-0.313,4.941-9.976,7.911-14.108,9.182l-0.741,0.229c-3.859,1.204-8.006,2.119-12.655,2.793
				C90.101,178.827,89.421,175.545,88.782,172.176L88.782,172.176z M61.705,182.93c-7.815-0.547-15.188-1.815-21.922-3.773
				c-3.982-1.158-14.561-4.233-14.837-9.446c-0.034-0.64,0.128-1.264,0.493-1.896c5.395,1.869,11.058,2.902,16.865,3.878
				c6.218,1.045,12.779,1.674,19.513,1.871C61.789,176.219,61.75,179.374,61.705,182.93L61.705,182.93z M71.317,173.563
				c2.956-0.088,5.973-0.256,8.986-0.5c0.634,3.383,1.305,6.673,1.999,9.802c-3.346,0.235-6.849,0.361-10.677,0.386H71.5
				c-0.1,0-0.199,0-0.299-0.001C71.248,179.563,71.288,176.296,71.317,173.563L71.317,173.563z"/>
		</g>
	</g>
	<ellipse fill="#754C24" cx="67.143" cy="145.958" rx="54.763" ry="17.208"/>
</g>
</svg>
